<?xml version="1.0" standalone="no"?>
<!DOCTYPE svg PUBLIC "-//W3C//DTD SVG 20010904//EN"
 "http://www.w3.org/TR/2001/REC-SVG-20010904/DTD/svg10.dtd">
<svg version="1.0" xmlns="http://www.w3.org/2000/svg"
 width="175.000000pt" height="279.000000pt" viewBox="0 0 175.000000 279.000000"
 preserveAspectRatio="xMidYMid meet">

<g transform="translate(0.000000,279.000000) scale(0.100000,-0.100000)"
fill="#000000" stroke="none">
<path d="M1540 2776 c-137 -51 -158 -68 -821 -661 -354 -316 -658 -593 -676
-615 -40 -50 -49 -103 -28 -157 13 -32 65 -84 237 -239 498 -447 976 -889
1015 -939 81 -103 198 -166 307 -164 81 1 118 18 144 70 20 38 23 54 18 114
-7 85 -30 176 -57 230 -23 43 -210 324 -409 615 -70 102 -135 200 -145 219
-24 47 -30 136 -15 216 12 62 33 99 255 454 133 212 267 424 298 471 104 153
115 278 31 366 -27 29 -38 34 -75 33 -24 0 -60 -6 -79 -13z"/>
</g>
</svg>
