<?xml version="1.0" standalone="no"?>
<!DOCTYPE svg PUBLIC "-//W3C//DTD SVG 20010904//EN"
 "http://www.w3.org/TR/2001/REC-SVG-20010904/DTD/svg10.dtd">
<svg version="1.0" xmlns="http://www.w3.org/2000/svg"
 width="178.000000pt" height="280.000000pt" viewBox="0 0 178.000000 280.000000"
 preserveAspectRatio="xMidYMid meet">

<g transform="translate(0.000000,280.000000) scale(0.100000,-0.100000)"
fill="#000000" stroke="none">
<path d="M141 2778 c-80 -30 -101 -129 -62 -293 25 -104 42 -133 366 -625 110
-168 206 -318 213 -333 21 -49 25 -128 8 -205 -14 -70 -30 -96 -273 -470 -141
-219 -273 -419 -294 -447 -59 -80 -82 -133 -87 -207 -4 -59 -1 -74 23 -122 18
-36 37 -59 56 -66 44 -19 120 -3 217 45 80 39 140 88 712 585 344 299 642 557
664 574 83 67 109 164 63 236 -12 20 -49 60 -82 91 -387 355 -1096 1028 -1125
1068 -41 55 -112 117 -172 147 -62 32 -171 42 -227 22z"/>
</g>
</svg>
