<svg width="50" height="50" viewBox="0 0 70 70" fill="none" xmlns="http://www.w3.org/2000/svg">
<g filter="url(#filter0_d_130_1276)">
<g clip-path="url(#clip0_130_1276)">
<path d="M59.3901 58.7421C59.1202 60.2954 11.2193 60.4067 10.8538 59.033C10.5775 57.9872 10.2332 45.8956 10.0865 34.1691C10.0674 32.684 10.0525 31.1988 10.0398 29.7508C9.96752 20.5986 10.0462 12.5912 10.4053 11.5268C10.9728 9.86221 59.3774 9.21246 59.8046 11.3721C60.2424 13.5813 59.8747 55.8399 59.3901 58.7421Z" fill="url(#paint0_linear_130_1276)"/>
<path opacity="0.05" d="M57.8308 51.9601C57.6268 53.1853 12.627 53.2596 12.3379 52.189C11.9851 50.8833 11.4453 25.4749 11.7683 17.3809V17.3685C11.8172 16.1247 11.8874 15.3017 11.9809 15.0294C12.0212 14.9118 12.4272 14.8004 13.1349 14.6952C16.1742 14.2559 24.7584 13.9465 33.6274 13.8598H33.6317C37.3064 13.8227 41.0321 13.8289 44.4305 13.8722C52.0499 13.9774 58.0348 14.2992 58.1581 14.9118C58.5066 16.6197 58.2197 49.6766 57.8308 51.9601Z" fill="#A7B6DF"/>
<path opacity="0.05" d="M13.1393 17.9255C10.3614 23.0492 24.072 39.0641 36.8623 40.0171C49.6525 40.97 54.0435 21.8549 52.9064 19.0889C51.7694 16.329 14.1275 16.1 13.1393 17.9255Z" fill="#DDA7DF"/>
<path opacity="0.05" d="M26.7291 19.095C24.2404 21.8239 35.3112 33.668 42.1293 30.9329C48.9474 28.1915 50.6328 22.2633 49.6934 20.0913C48.754 17.9254 28.8842 16.7249 26.7291 19.095Z" fill="#DDA7DF"/>
<path d="M59.3504 58.8599C59.0167 60.1965 11.2221 60.475 10.8417 59.0332C10.7685 58.7591 10.6889 57.6408 10.6087 55.9183C10.2209 47.5843 7.16945 48.7055 11.4219 55.8834C12.2359 57.251 58.1793 57.0344 58.5937 55.7906C59.0889 54.5468 59.9221 15.8216 59.9369 15.0728C60.1112 26.1248 59.7818 57.5666 59.3504 58.8599Z" fill="#45365C"/>
<path opacity="0.4" d="M59.3313 58.5272C59.3696 58.7121 59.3497 58.8377 59.1747 58.9085C55.9327 60.2198 14.5247 60.3964 11.0667 59.183C10.8847 59.1191 10.8431 58.9154 10.8544 58.7229C10.9361 57.3303 12.8898 56.2573 14.2806 56.3653C22.7634 57.0236 47.6435 56.9332 55.8956 56.2666C57.4211 56.1433 59.0207 57.0285 59.3313 58.5272Z" fill="#6E1A46"/>
<path opacity="0.7" d="M58.6479 55.7831C58.6503 55.7966 58.608 55.8211 58.5957 55.8149C58.5903 55.8122 58.5833 55.8097 58.5801 55.8149C57.8526 56.9686 17.8655 57.1972 12.1009 56.1169C11.6371 56.03 11.3964 56.0105 11.4818 55.5464C11.7424 54.1289 13.9295 52.529 15.3681 52.615C24.6249 53.1685 52.1903 52.9801 57.0656 52.2785C57.3778 52.2336 57.9688 52.5213 58.0471 52.8269C58.3037 53.8281 58.5793 55.3867 58.6479 55.7831Z" fill="#E5E0E5"/>
<path opacity="0.3" d="M59.5867 11.169C59.7611 11.2656 59.7518 11.6089 59.7047 11.8027C59.3665 13.1961 56.1032 14.3442 54.6737 14.2331C45.9815 13.5577 23.4607 13.7861 15.1335 14.4772C13.785 14.5891 10.9736 12.9846 10.4694 11.729C10.3218 11.3616 10.5295 11.3717 10.9112 11.2663C15.9951 9.8623 56.347 9.37331 59.5867 11.169Z" fill="#CECFE5"/>
<path opacity="0.3" d="M57.8308 51.9599C57.6267 53.1852 12.627 53.2594 12.3379 52.1889C11.9851 50.8832 11.4453 25.4748 11.7683 17.3807C11.7556 18.0676 11.6706 23.0367 11.8746 24.3114C12.1304 25.9014 12.1331 27.5275 11.9595 29.1285C11.8949 29.7251 11.8613 30.3325 11.9044 30.8213C12.1089 33.1359 12.2897 35.4547 12.1932 37.7763C12.0631 40.9082 11.9368 45.2082 12.153 46.5206C12.4077 48.066 12.3234 49.9091 12.845 51.3861C12.9341 51.6384 13.0656 51.8428 13.2561 51.9537C14.9337 52.9307 17.0631 50.7205 18.9189 51.2905C21.0358 51.9406 23.6018 52.6361 24.412 52.4674C26.0817 52.1267 27.8538 51.864 29.544 52.0815C29.6678 52.0974 29.7684 52.0978 29.8358 52.0775C31.7478 51.4794 33.6271 50.6813 35.4523 51.5073C36.8456 52.1378 38.3828 52.6801 39.2511 52.4983C41.1129 52.1022 41.6421 50.9079 41.7993 51.1307C41.9566 51.3597 46.0521 52.2693 49.323 51.929C52.5961 51.5824 54.477 50.3324 54.6321 50.4438C54.7894 50.5552 56.9254 52.4983 57.3759 51.3597C58.012 49.7436 57.5132 47.8316 57.7993 46.1186C57.9278 45.3495 58.0121 44.5397 57.9625 43.8844C57.8265 42.0589 56.8659 40.4624 56.8659 40.2891C56.8659 40.1221 57.9243 31.6753 58.0412 26.5948C58.1581 21.5206 57.9817 19.1258 57.903 18.6679C57.8244 18.2099 57.903 15.5305 57.6692 15.5305C56.5149 15.5305 55.5269 16.7952 54.6038 16.1022C54.235 15.8252 53.834 15.6125 53.4164 15.5305C51.8654 15.2258 50.1415 15.2989 48.6075 14.9175C47.5878 14.6639 46.389 14.3781 45.3253 14.1567C45.136 14.1174 45.1786 13.8831 45.3719 13.8862C52.5394 14.0044 58.0441 14.3244 58.1623 14.9117C58.5066 16.6196 58.2197 49.6765 57.8308 51.9599Z" fill="#E0DEEA"/>
<path opacity="0.3" d="M29.145 13.9168C30.1819 13.8975 30.4491 15.2064 29.5679 15.7533C29.3043 15.9265 27.8039 14.6456 25.8167 14.9798C25.2154 15.0827 24.5787 15.5001 23.9831 16.0323C22.6679 17.2072 20.5141 17.0622 19.4279 15.6728C18.8057 14.8694 14.5216 14.9616 13.2381 15.008C13.0821 15.0136 12.9842 14.8486 13.0921 14.7358C13.1201 14.7064 13.158 14.6861 13.1982 14.6805C15.7566 14.3202 22.0504 14.0484 29.145 13.9168Z" fill="#E0DEEA"/>
<path d="M12.153 14.0825C11.8662 13.8671 11.2921 14.1889 11.3619 14.5406C11.4436 14.9523 11.5127 15.3837 11.5366 15.7532C11.611 16.8671 11.696 20.4191 11.696 20.2891C11.6982 20.1592 11.9766 16.7372 12.3443 16.1369C12.4196 16.0139 12.5226 15.8713 12.6389 15.7221C12.9755 15.2902 12.589 14.4138 12.153 14.0825Z" fill="#A295B3"/>
<path d="M57.4035 51.1864C57.1134 51.67 57.1533 53.1684 57.5374 53.5812C57.6947 53.7524 58.2896 53.5269 58.2671 53.2956C58.2162 52.7746 58.1792 52.1791 58.1835 51.5701C58.1984 49.7755 58.1474 43.3894 58.1283 43.8659C58.1091 44.3424 58.022 50.1592 57.4035 51.1864Z" fill="#A295B3"/>
<path d="M14.901 44.6392C14.6948 44.325 14.2678 44.4656 14.3938 44.8196C14.5201 45.1741 14.6655 45.4925 14.8287 45.7097C15.3482 46.3963 15.4482 45.3736 14.9326 44.6841C14.9215 44.6692 14.9109 44.6542 14.901 44.6392Z" fill="#4A3B61"/>
<path d="M14.1742 38.8597C13.9217 39.0787 13.6449 39.723 13.9684 39.8071C14.0196 39.8204 14.0714 39.827 14.1232 39.8251C14.308 39.8181 14.5018 39.5216 14.6718 39.1537C14.7963 38.8843 14.3996 38.6668 14.1742 38.8597Z" fill="#4A3B61"/>
<path d="M55.6989 22.2879C55.3621 21.758 54.8743 21.9515 55.0772 22.5456C55.1607 22.7903 55.2481 23.0094 55.3354 23.1728C55.3578 23.2143 55.3823 23.2518 55.4088 23.2855C55.7383 23.7047 55.9835 22.7388 55.6989 22.2879Z" fill="#52416B"/>
<path d="M14.0361 38.7731C13.7943 38.9613 13.7724 39.3708 14.0477 39.2363C14.0763 39.2224 14.105 39.2062 14.1338 39.1877C14.2012 39.1444 14.2689 39.0871 14.3357 39.0202C14.5444 38.8112 14.2706 38.5937 14.0361 38.7731Z" fill="#85739C"/>
<path d="M15.0859 44.6577C14.956 44.5037 14.6922 44.6274 14.8008 44.7971C14.8702 44.9056 14.9414 45.003 15.0136 45.0847C15.2981 45.4094 15.4405 45.0557 15.1524 44.7343C15.13 44.7093 15.1079 44.6838 15.0859 44.6577Z" fill="#85739C"/>
<path d="M55.7711 22.1084C55.5245 21.7938 55.1396 21.9958 55.3806 22.3148C55.4843 22.4519 55.5969 22.5724 55.718 22.6654C56.0027 22.8838 56.184 22.6129 55.9551 22.3365C55.896 22.2651 55.8346 22.1891 55.7711 22.1084Z" fill="#85739C"/>
<g clip-path="url(#clip1_130_1276)">
<path d="M41.6061 41.5288C41.9365 43.6912 42.2464 45.7281 42.5576 47.7636C42.5153 47.7967 42.4731 47.831 42.4308 47.864C40.7866 46.5721 39.1411 45.2803 37.4163 43.925C36.6198 45.9262 35.8489 47.8627 34.9987 50C34.1574 47.8852 33.3878 45.95 32.5823 43.9223C30.8831 45.2591 29.235 46.555 27.5857 47.8521C27.5358 47.831 27.4846 47.8099 27.4346 47.7887C27.7471 45.7466 28.0595 43.7031 28.3912 41.5341C26.2527 41.8511 24.1808 42.1575 22.1077 42.464C22.068 42.4164 22.0296 42.3689 21.9899 42.3213C23.2883 40.7045 24.588 39.089 25.9531 37.3903C23.9068 36.595 21.9617 35.8395 20.0166 35.0839C20.0115 35.0297 20.0063 34.9769 20.0012 34.9227C21.9399 34.1698 23.8799 33.4168 25.9556 32.6111C24.5996 30.9242 23.2858 29.2876 21.8477 27.4977C24.1258 27.8359 26.2002 28.1436 28.3784 28.4673C28.0544 26.3154 27.7471 24.2667 27.4077 22.0131C29.2133 23.4318 30.8639 24.7277 32.5772 26.075C33.3814 24.0566 34.1484 22.1307 34.9961 20C35.8361 22.1043 36.6044 24.0302 37.4188 26.0697C39.1245 24.7303 40.7687 23.4397 42.4129 22.1492C42.4602 22.1782 42.5089 22.2086 42.5563 22.2377C42.2477 24.2667 41.9391 26.2969 41.6087 28.4673C43.7664 28.1476 45.8549 27.8385 47.9421 27.5294C47.9716 27.573 48.0011 27.6166 48.0292 27.6588C46.7167 29.281 45.4042 30.9044 44.0263 32.6071C46.0777 33.4023 48.0228 34.1579 49.9692 34.9122C49.9782 34.9637 49.9884 35.0152 49.9974 35.0654C48.0471 35.8263 46.0969 36.5871 44.0391 37.3903C45.4003 39.0797 46.7103 40.7045 48.0203 42.3293C47.9934 42.3742 47.9665 42.4191 47.9409 42.464C45.8677 42.1602 43.7945 41.8524 41.6061 41.5288ZM35.0486 26.3405C30.3286 26.3339 26.601 30.1739 26.5972 35.0469C26.5946 39.801 30.3491 43.6489 35.0102 43.6674C39.6226 43.6859 43.3873 39.8036 43.3925 35.0218C43.3989 30.2215 39.6751 26.3471 35.0486 26.3405Z" fill="url(#paint1_linear_130_1276)"/>
<path d="M28.4053 35.006C28.4155 31.2294 31.3723 28.1727 34.9936 28.1952C38.6981 28.219 41.5985 31.236 41.5908 35.0601C41.5831 38.7773 38.6085 41.8221 35.0038 41.7996C31.3236 41.7772 28.3951 38.7628 28.4053 35.006Z" fill="url(#paint2_linear_130_1276)"/>
</g>
</g>
<rect x="10.5" y="10.5" width="49" height="49" rx="24.5" stroke="url(#paint3_linear_130_1276)" shape-rendering="crispEdges"/>
</g>
<defs>
<filter id="filter0_d_130_1276" x="0" y="0" width="70" height="70" filterUnits="userSpaceOnUse" color-interpolation-filters="sRGB">
<feFlood flood-opacity="0" result="BackgroundImageFix"/>
<feColorMatrix in="SourceAlpha" type="matrix" values="0 0 0 0 0 0 0 0 0 0 0 0 0 0 0 0 0 0 127 0" result="hardAlpha"/>
<feOffset/>
<feGaussianBlur stdDeviation="5"/>
<feComposite in2="hardAlpha" operator="out"/>
<feColorMatrix type="matrix" values="0 0 0 0 1 0 0 0 0 0.454902 0 0 0 0 0.121569 0 0 0 0.6 0"/>
<feBlend mode="normal" in2="BackgroundImageFix" result="effect1_dropShadow_130_1276"/>
<feBlend mode="normal" in="SourceGraphic" in2="effect1_dropShadow_130_1276" result="shape"/>
</filter>
<linearGradient id="paint0_linear_130_1276" x1="35.0081" y1="73.2797" x2="35.0081" y2="-2.95071" gradientUnits="userSpaceOnUse">
<stop stop-color="#393252"/>
<stop offset="1" stop-color="#7A6583"/>
</linearGradient>
<linearGradient id="paint1_linear_130_1276" x1="35.0055" y1="13.5322" x2="35.0055" y2="68.1804" gradientUnits="userSpaceOnUse">
<stop stop-color="#FCF800"/>
<stop offset="0.2247" stop-color="#FCC800"/>
<stop offset="0.4739" stop-color="#FC9A00"/>
<stop offset="0.6953" stop-color="#FC7800"/>
<stop offset="0.8782" stop-color="#FC6300"/>
<stop offset="1" stop-color="#FC5C00"/>
</linearGradient>
<linearGradient id="paint2_linear_130_1276" x1="35.0008" y1="25.262" x2="35.0008" y2="50.0443" gradientUnits="userSpaceOnUse">
<stop stop-color="#FCF800"/>
<stop offset="0.2247" stop-color="#FCC800"/>
<stop offset="0.4739" stop-color="#FC9A00"/>
<stop offset="0.6953" stop-color="#FC7800"/>
<stop offset="0.8782" stop-color="#FC6300"/>
<stop offset="1" stop-color="#FC5C00"/>
</linearGradient>
<linearGradient id="paint3_linear_130_1276" x1="35.0103" y1="-0.779648" x2="35.0103" y2="90.3006" gradientUnits="userSpaceOnUse">
<stop stop-color="#FCF800"/>
<stop offset="0.2247" stop-color="#FCC800"/>
<stop offset="0.4739" stop-color="#FC9A00"/>
<stop offset="0.6953" stop-color="#FC7800"/>
<stop offset="0.8782" stop-color="#FC6300"/>
<stop offset="1" stop-color="#FC5C00"/>
</linearGradient>
<clipPath id="clip0_130_1276">
<rect x="10" y="10" width="50" height="50" rx="25" fill="white"/>
</clipPath>
<clipPath id="clip1_130_1276">
<rect width="30" height="30" fill="white" transform="translate(20 20)"/>
</clipPath>
</defs>
</svg>
